<svg width="967" height="263" viewBox="0 0 967 263" fill="none" xmlns="http://www.w3.org/2000/svg">
<path d="M936.196 175.1C925.896 175.1 917.996 173 912.396 168.8C906.796 164.5 903.496 158.4 902.596 150.6L913.196 148.1C913.996 154 916.196 158.3 919.796 161C923.596 163.8 928.996 165.1 936.196 165.1C943.396 165.1 946.896 163.9 949.896 161.5C953.096 159 954.696 155.7 954.696 151.7C954.696 147.7 953.096 145.2 949.896 143.4C946.696 141.5 941.696 139.9 934.796 138.6C929.096 137.5 924.096 136.1 920.096 134.5C915.996 132.7 912.896 130.3 910.696 127.2C908.496 124.1 907.396 120 907.396 114.8C907.396 109.6 908.696 106 911.196 102.2C913.696 98.4001 917.196 95.5001 921.596 93.4001C926.096 91.2001 931.196 90.1001 936.796 90.1001C942.396 90.1001 950.796 92.0001 955.696 95.7001C960.696 99.3001 963.696 104.4 964.796 110.9L954.496 113.6C952.796 104.5 946.896 100 936.596 100C926.296 100 927.096 101.3 923.796 104C920.696 106.5 919.196 110 919.196 114.4C919.196 118.8 920.596 121 923.296 123.2C926.096 125.3 930.996 127.1 938.196 128.7C944.096 129.9 949.096 131.3 953.296 133C957.496 134.5 960.696 136.7 962.896 139.5C965.196 142.3 966.396 146.1 966.496 150.9C966.496 155.5 965.196 159.7 962.696 163.3C960.196 166.9 956.596 169.8 951.896 171.9C947.396 174 942.096 175 935.996 175L936.196 175.1Z" fill="white"/>
<path d="M817.596 206.9V91.5H829.896L829.396 110.7C832.396 104.3 836.496 99.3 841.696 95.6C846.896 91.8 852.896 90 859.596 90C866.296 90 872.396 91.7 877.196 95C882.096 98.2 885.696 102.7 888.096 108.6C890.596 114.3 891.896 121 891.896 128.5C891.896 136 890.196 145.8 886.896 152.8C883.596 159.8 878.996 165.2 872.996 169.2C866.996 173.2 860.096 175.2 852.296 175.2C844.496 175.2 842.696 174.1 838.696 171.9C834.696 169.7 831.696 166.8 829.596 163.1L829.796 173.9V207H817.696L817.596 206.9ZM851.896 164C860.196 164 866.796 160.9 871.796 154.6C876.796 148.2 879.296 139.7 879.296 129.3C879.296 118.9 877.396 113.6 873.496 108.6C869.696 103.5 864.596 101 857.896 101C851.196 101 847.596 102.6 843.296 105.8C839.096 109 835.696 113.4 833.196 119C830.796 124.6 829.596 131 829.596 138.2C829.596 145.4 831.596 152.6 835.596 157.2C839.696 161.7 845.096 164 851.996 164H851.896Z" fill="white"/>
<path d="M762.896 89.9001C774.296 89.9001 783.196 93.6001 789.696 101C796.296 108.3 799.596 118.2 799.596 130.8C799.596 143.4 797.896 146.8 794.596 153.5C791.396 160.1 786.896 165.4 780.996 169.2C775.096 173.1 768.296 175 760.496 175C748.896 175 739.796 171.4 733.196 164.1C726.596 156.7 723.296 146.7 723.296 134C723.296 121.3 724.896 118.1 728.096 111.5C731.396 104.9 735.996 99.6001 741.996 95.8001C747.996 91.9001 754.896 90.0001 762.896 90.0001V89.9001ZM760.596 164C768.496 164 774.996 161 779.796 154.9C784.696 148.8 787.096 140.8 787.096 130.9C787.096 121 784.896 113.9 780.596 108.7C776.396 103.5 770.596 100.9 762.996 100.9C755.396 100.9 752.696 102.3 748.596 105.2C744.596 108 741.496 111.8 739.196 116.8C736.996 121.8 735.896 127.5 735.896 134C735.896 143.7 738.096 151.2 742.396 156.4C746.796 161.5 752.896 164 760.596 164Z" fill="white"/>
<path d="M719.896 102.8C718.796 102.5 717.696 102.2 716.596 102.1C715.496 102 714.296 101.9 712.996 101.9C703.396 101.9 696.396 107.6 691.996 119C687.596 130.3 685.396 148.5 685.396 173.7H673.496V120.9L673.296 91.4001H685.396L684.596 120.7C687.196 109.5 691.196 101.7 696.496 97.0001C701.796 92.3001 707.496 89.9001 713.596 89.9001C719.696 89.9001 716.896 90.0001 718.196 90.2001C719.596 90.3001 720.796 90.6001 721.796 91.0001L719.996 102.8H719.896Z" fill="white"/>
<path d="M624.996 175.1C612.296 175.1 602.296 171.5 594.996 164.2C587.796 156.9 584.196 146.8 584.196 133.7C584.196 120.6 585.896 117.6 589.296 111C592.696 104.4 597.396 99.2 603.196 95.6C609.196 91.8 615.896 90 623.396 90C634.696 90 643.296 93.9 649.396 101.8C655.596 109.6 657.796 121.3 655.996 136.9H596.496C596.796 145.7 599.496 152.5 604.496 157.1C609.596 161.7 616.596 164.1 625.696 164.1C634.796 164.1 634.396 163.2 638.496 161.3C642.596 159.3 646.096 156.3 648.896 152.2L656.496 159.2C649.096 169.9 638.596 175.3 624.896 175.3L624.996 175.1ZM623.696 99.7C618.596 99.7 614.196 100.9 610.296 103.3C606.496 105.7 603.496 109 601.196 113.2C598.896 117.3 597.396 121.9 596.896 126.9H645.596C645.996 117.3 644.196 110.3 639.996 106C635.796 101.7 630.396 99.5 623.796 99.5L623.696 99.7Z" fill="white"/>
<path d="M439.796 173.7L444.896 56.1001H457.296L503.196 158.3L549.196 56.1001H561.596L565.896 173.7H553.996L550.396 80.6001L508.196 173.7H497.396L455.796 81.0001L451.696 173.7H439.796Z" fill="white"/>
<path d="M130.196 151.7C130.396 165.3 128.596 178.4 124.996 190.6L124.696 191.5L112.696 193.3L113.596 190.9C113.596 190.7 113.596 190.5 113.696 190.4C117.596 178.4 119.396 165.4 119.296 151.8C118.996 129.3 113.096 106.3 102.196 85.1C82.2963 46.3 47.2963 18.5 10.7963 12.2C10.4963 33.6 17.4963 59.5 29.8963 83.7C47.6963 118.1 74.1963 144.4 97.4963 150.5L98.9963 150.9L96.2963 161.4L94.7963 161C68.2963 154 39.7963 126.3 20.3963 88.7C5.69631 60.3 -1.60369 30 0.296306 5.6L0.696306 0L6.19631 0.6C48.3963 5.3 88.8963 35.7 111.796 80.2C123.496 102.8 129.796 127.6 130.096 151.7H130.196Z" fill="white"/>
<path d="M350.997 56.7H317.797C306.097 56.7 283.597 61.6 265.597 94.5C261.697 101.6 258.297 109.2 254.997 116.5C250.997 125.5 246.797 134.9 241.497 143.7C230.897 161.5 216.597 176 200.197 185.6C174.497 200.6 142.897 205.3 114.897 209.5L110.697 210.1C62.3967 217.4 45.4967 240.2 39.8967 251.9C51.0967 251.1 60.0967 248.3 72.1967 241.9C84.6967 235.3 93.1967 227.9 100.597 217L100.997 216.4L115.297 214.2L113.397 217.1C113.397 217.3 110.997 220.9 109.397 223.1C100.997 235.5 91.2967 244 77.0967 251.5C60.6967 260.1 49.3967 262.9 32.0967 262.9H25.5967L26.7967 256.5C27.1967 254.6 36.4967 210.3 108.997 199.4L113.197 198.8C141.497 194.6 170.797 190.2 194.697 176.2C209.497 167.5 222.497 154.4 232.097 138.1C236.997 129.8 241.097 120.7 244.997 112C248.397 104.4 251.897 96.7 255.897 89.2C270.997 61.6 293.497 45.7999 317.497 45.7999H329.797C326.097 43.5999 320.897 41.7 313.497 41.7C306.097 41.7 308.797 41.9 306.297 42.2C304.997 42.4 303.597 42.6 302.297 42.9C298.897 43.5 295.297 44.0999 291.697 44.0999C288.097 44.0999 283.497 43.2 279.797 41.5C273.897 38.7 269.697 34.0999 265.597 29.7999C264.797 29 264.097 28.2 263.397 27.5C254.197 17.8 242.397 13.1 227.097 13H226.497C214.797 13 203.997 15.8 195.297 21.2C182.097 29.3 174.497 43.9999 174.497 61.5999V63.0999H163.797V61.5999C163.797 40.2 173.297 22.1 189.797 12C200.297 5.59995 212.997 2.19995 226.697 2.19995H227.297C245.597 2.29995 259.997 8.19995 271.297 20H271.397C272.097 20.9 272.797 21.6 273.497 22.4C277.097 26.1999 280.397 29.9 284.497 31.7999C286.797 32.9 289.097 33.4 291.897 33.4C294.697 33.4 297.597 32.9 300.597 32.4L301.697 32.2C302.697 32 303.797 31.9 304.897 31.7C307.997 31.3 310.997 31 313.797 31C339.097 31 347.097 48.2999 347.397 49L350.897 56.5999L350.997 56.7Z" fill="white"/>
</svg>
