<svg width="1000" height="197" viewBox="0 0 1000 197" fill="none" xmlns="http://www.w3.org/2000/svg">
<path d="M33.7986 78.0641L63.8706 46.592L95.343 78.0641L165.32 6.22237C167.418 4.06811 167.187 1.07035 164.377 0L104.065 0.335346H81.3658L36.061 0.0834392C26.1411 0.0282824 15.5424 1.21651 8.95692 8.63527C3.54051 14.7371 0 22.7825 0 30.3751V119.198C0 128.08 5.81178 139.813 12.9394 145.077L73.2515 190.146C83.8884 198.151 101.324 198.151 111.961 190.146L172.273 145.077C179.4 139.704 185.212 128.08 185.212 119.198V46.9384C185.212 46.0593 184.159 45.608 183.523 46.2142L91.4817 133.843L33.7986 78.0641Z" fill="white"/>
<path d="M91.4817 196.032V133.843L44.6142 168.768C65.344 185.352 75.4836 196.032 91.4817 196.032Z" fill="white"/>
<path fill-rule="evenodd" clip-rule="evenodd" d="M371.32 100.51C370.794 76.8221 389.372 29.4468 451.346 29.4468C514.087 29.4468 533.293 74.9013 533.293 99.2294C533.293 123.557 515.111 170.165 452.627 169.652C393.088 169.164 371.961 129.319 371.32 100.51ZM451.987 67.8619C464.791 67.6485 490.527 73.6238 491.039 99.232C491.551 124.84 466.071 131.243 451.987 131.243C439.182 131.243 413.574 123.56 413.574 101.153C413.574 76.1848 437.902 67.8619 451.987 67.8619Z" fill="white"/>
<path fill-rule="evenodd" clip-rule="evenodd" d="M554.419 33.2935H624.842C660.053 33.2935 699.746 58.2615 699.106 99.875C698.485 140.208 668.376 167.737 623.561 167.737H554.419V33.2935ZM596.031 68.4998H622.279C640.845 68.4998 656.85 82.9685 656.85 99.87C656.85 120.997 637.644 132.521 622.279 132.521H596.031V68.4998Z" fill="white"/>
<path d="M367.478 33.2932H226.633V69.1448H275.289V167.737H317.542V69.1448H367.478V33.2932Z" fill="white"/>
<path d="M824.585 33.2932H719.591V67.8644H751.601V133.166H719.591V167.737H823.945V133.166H792.574V67.8644H824.585V33.2932Z" fill="white"/>
<path d="M895.005 33.2932H856.593V167.737H896.286V115.24L895.005 92.8325L961.587 167.737H999.999V33.2932H960.306V79.3881L962.867 109.478L895.005 33.2932Z" fill="white"/>
</svg>
