<svg width="769" height="263" viewBox="0 0 769 263" fill="none" xmlns="http://www.w3.org/2000/svg">
<path d="M708.204 45.7197V14.0397H716.259V45.7197H708.204ZM698.439 20.7447V13.8147H726.024V20.7447H698.439ZM727.438 45.7197V13.8147H733.243L745.483 32.3097H742.738L754.933 13.8147H760.738V45.7197H752.773V27.1347L754.033 27.4947L746.698 38.5197H741.478L734.188 27.4947L735.448 27.1347V45.7197H727.438Z" fill="white"/>
<path d="M58.75 194V18H103.5V194H58.75ZM4.5 55.25V16.75H157.75V55.25H4.5ZM194.777 196.75C181.611 196.75 169.861 194 159.527 188.5C149.361 182.833 141.277 175.167 135.277 165.5C129.277 155.667 126.277 144.667 126.277 132.5C126.277 120.333 129.194 109.5 135.027 100C141.027 90.3333 149.194 82.75 159.527 77.25C169.861 71.5833 181.527 68.75 194.527 68.75C207.527 68.75 219.111 71.5833 229.277 77.25C239.611 82.75 247.777 90.3333 253.777 100C259.777 109.5 262.777 120.333 262.777 132.5C262.777 144.667 259.777 155.667 253.777 165.5C247.944 175.167 239.861 182.833 229.527 188.5C219.361 194 207.777 196.75 194.777 196.75ZM194.527 158C199.361 158 203.527 157 207.027 155C210.694 152.833 213.527 149.833 215.527 146C217.527 142.167 218.527 137.75 218.527 132.75C218.527 127.75 217.444 123.417 215.277 119.75C213.277 115.917 210.527 113 207.027 111C203.527 108.833 199.361 107.75 194.527 107.75C189.861 107.75 185.694 108.833 182.027 111C178.361 113.167 175.527 116.167 173.527 120C171.527 123.667 170.527 128 170.527 133C170.527 137.833 171.527 142.167 173.527 146C175.527 149.833 178.361 152.833 182.027 155C185.694 157 189.861 158 194.527 158ZM262.785 249.5C253.785 249.5 246.035 247.917 239.535 244.75C232.868 241.75 227.202 237.667 222.535 232.5L249.285 205.75C250.952 207.583 252.702 208.833 254.535 209.5C256.202 210.333 257.952 210.75 259.785 210.75C263.118 210.75 265.785 209.833 267.785 208C269.785 206.167 270.785 203.167 270.785 199V71.75H314.285V198.25C314.285 208.417 312.118 217.333 307.785 225C303.452 232.667 297.368 238.667 289.535 243C281.868 247.333 272.952 249.5 262.785 249.5ZM292.535 57.5C286.035 57.5 280.618 55.3333 276.285 51C271.952 46.5 269.785 40.9167 269.785 34.25C269.785 27.75 271.952 22.25 276.285 17.75C280.618 13.25 286.035 11 292.535 11C299.368 11 304.868 13.25 309.035 17.75C313.368 22.25 315.535 27.75 315.535 34.25C315.535 40.9167 313.368 46.5 309.035 51C304.868 55.3333 299.368 57.5 292.535 57.5ZM378.057 196.5C366.723 196.5 356.64 193.75 347.807 188.25C338.973 182.75 332.057 175.25 327.057 165.75C322.057 156.083 319.557 145.167 319.557 133C319.557 120.667 322.057 109.667 327.057 100C332.057 90.3333 338.973 82.8333 347.807 77.5C356.64 72 366.723 69.25 378.057 69.25C385.723 69.25 392.723 70.6667 399.057 73.5C405.39 76.1667 410.557 80 414.557 85C418.723 90 421.223 95.6667 422.057 102V163.5C421.223 170 418.723 175.75 414.557 180.75C410.557 185.583 405.39 189.417 399.057 192.25C392.723 195.083 385.723 196.5 378.057 196.5ZM387.307 157.75C394.473 157.75 400.223 155.417 404.557 150.75C409.057 146.083 411.307 140.083 411.307 132.75C411.307 127.917 410.307 123.667 408.307 120C406.307 116.333 403.473 113.417 399.807 111.25C396.307 109.083 392.223 108 387.557 108C382.89 108 378.723 109.083 375.057 111.25C371.557 113.417 368.723 116.417 366.557 120.25C364.557 123.917 363.557 128.083 363.557 132.75C363.557 137.583 364.557 141.917 366.557 145.75C368.557 149.417 371.39 152.333 375.057 154.5C378.723 156.667 382.807 157.75 387.307 157.75ZM409.557 194V161.25L415.807 131.25L409.557 101.75V71.75H452.307V194H409.557ZM517.191 249.5C503.691 249.5 491.691 247.167 481.191 242.5C470.858 238 462.775 231.583 456.941 223.25L483.191 197.25C487.358 201.75 491.941 205.25 496.941 207.75C501.941 210.417 508.025 211.75 515.191 211.75C523.858 211.75 530.691 209.583 535.691 205.25C540.858 201.083 543.441 195 543.441 187V155.25L550.441 128.75L544.191 102.5V71.75H586.941V185.5C586.941 198.5 583.858 209.75 577.691 219.25C571.691 228.917 563.441 236.333 552.941 241.5C542.441 246.833 530.525 249.5 517.191 249.5ZM515.191 189.5C503.858 189.5 493.775 186.917 484.941 181.75C476.275 176.417 469.441 169.167 464.441 160C459.441 150.833 456.941 140.583 456.941 129.25C456.941 117.917 459.441 107.75 464.441 98.75C469.441 89.75 476.275 82.5833 484.941 77.25C493.775 71.9167 503.858 69.25 515.191 69.25C522.858 69.25 529.858 70.6667 536.191 73.5C542.691 76.1667 547.941 80 551.941 85C555.941 89.8333 558.441 95.5 559.441 102V156.75C558.441 163.25 555.858 169 551.691 174C547.691 178.833 542.525 182.667 536.191 185.5C529.858 188.167 522.858 189.5 515.191 189.5ZM523.191 151.75C527.858 151.75 531.858 150.75 535.191 148.75C538.691 146.583 541.358 143.833 543.191 140.5C545.025 137 545.941 133.25 545.941 129.25C545.941 125.083 545.025 121.333 543.191 118C541.358 114.667 538.775 112 535.441 110C532.108 107.833 528.108 106.75 523.441 106.75C518.941 106.75 514.941 107.833 511.441 110C508.108 112 505.525 114.75 503.691 118.25C501.858 121.583 500.941 125.25 500.941 129.25C500.941 133.083 501.858 136.75 503.691 140.25C505.525 143.583 508.108 146.333 511.441 148.5C514.775 150.667 518.691 151.75 523.191 151.75ZM659.914 196.75C646.747 196.75 634.997 194 624.664 188.5C614.497 182.833 606.414 175.167 600.414 165.5C594.414 155.667 591.414 144.667 591.414 132.5C591.414 120.333 594.331 109.5 600.164 100C606.164 90.3333 614.331 82.75 624.664 77.25C634.997 71.5833 646.664 68.75 659.664 68.75C672.664 68.75 684.247 71.5833 694.414 77.25C704.747 82.75 712.914 90.3333 718.914 100C724.914 109.5 727.914 120.333 727.914 132.5C727.914 144.667 724.914 155.667 718.914 165.5C713.081 175.167 704.997 182.833 694.664 188.5C684.497 194 672.914 196.75 659.914 196.75ZM659.664 158C664.497 158 668.664 157 672.164 155C675.831 152.833 678.664 149.833 680.664 146C682.664 142.167 683.664 137.75 683.664 132.75C683.664 127.75 682.581 123.417 680.414 119.75C678.414 115.917 675.664 113 672.164 111C668.664 108.833 664.497 107.75 659.664 107.75C654.997 107.75 650.831 108.833 647.164 111C643.497 113.167 640.664 116.167 638.664 120C636.664 123.667 635.664 128 635.664 133C635.664 137.833 636.664 142.167 638.664 146C640.664 149.833 643.497 152.833 647.164 155C650.831 157 654.997 158 659.664 158Z" fill="white"/>
</svg>
