<svg width="955" height="256" viewBox="0 0 955 256" fill="none" xmlns="http://www.w3.org/2000/svg">
<path d="M156.95 233.481L141.826 177.549C86 198.5 56.787 158.43 56.787 124.472C56.787 97.3049 88.1776 57.6963 134.691 74.2475L156.95 21.7404C95.5971 -6.22536 0 35.4378 0 124.472C0 232.785 110.721 258.307 156.95 233.481Z" fill="white"/>
<circle cx="114.145" cy="127.843" r="14.2682" fill="white"/>
<mask id="path-3-outside-1_110_160" maskUnits="userSpaceOnUse" x="194" y="26" width="696" height="207" fill="black">
<rect fill="white" x="194" y="26" width="696" height="207"/>
<path d="M204.23 220V51.41H225.39V201.83H299.22V220H204.23ZM371.979 222.99C361.859 222.99 352.352 220.46 343.459 215.4C334.566 210.187 327.436 202.75 322.069 193.09C316.856 183.277 314.249 171.47 314.249 157.67C314.249 143.717 316.856 131.91 322.069 122.25C327.436 112.437 334.566 104.923 343.459 99.71C352.352 94.4967 361.859 91.89 371.979 91.89C379.646 91.89 386.929 93.3467 393.829 96.26C400.882 99.1733 407.092 103.467 412.459 109.14C417.826 114.813 422.042 121.713 425.109 129.84C428.176 137.967 429.709 147.243 429.709 157.67C429.709 171.47 427.026 183.277 421.659 193.09C416.292 202.75 409.239 210.187 400.499 215.4C391.759 220.46 382.252 222.99 371.979 222.99ZM371.979 205.51C379.186 205.51 385.472 203.517 390.839 199.53C396.359 195.543 400.652 189.947 403.719 182.74C406.786 175.533 408.319 167.177 408.319 157.67C408.319 148.01 406.786 139.577 403.719 132.37C400.652 125.163 396.359 119.567 390.839 115.58C385.472 111.593 379.186 109.6 371.979 109.6C364.772 109.6 358.409 111.593 352.889 115.58C347.522 119.567 343.306 125.163 340.239 132.37C337.326 139.577 335.869 148.01 335.869 157.67C335.869 167.177 337.326 175.533 340.239 182.74C343.306 189.947 347.522 195.543 352.889 199.53C358.409 203.517 364.772 205.51 371.979 205.51ZM512.151 222.99C501.111 222.99 491.145 220.46 482.251 215.4C473.511 210.187 466.535 202.75 461.321 193.09C456.261 183.277 453.731 171.47 453.731 157.67C453.731 143.717 456.491 131.91 462.011 122.25C467.531 112.437 474.891 104.923 484.091 99.71C493.291 94.4967 503.181 91.89 513.761 91.89C521.888 91.89 528.865 93.3467 534.691 96.26C540.671 99.1733 545.808 102.623 550.101 106.61L539.521 120.41C535.995 117.19 532.161 114.583 528.021 112.59C524.035 110.597 519.588 109.6 514.681 109.6C507.168 109.6 500.421 111.593 494.441 115.58C488.461 119.567 483.785 125.163 480.411 132.37C477.038 139.577 475.351 148.01 475.351 157.67C475.351 167.177 476.961 175.533 480.181 182.74C483.555 189.947 488.078 195.543 493.751 199.53C499.578 203.517 506.325 205.51 513.991 205.51C519.818 205.51 525.185 204.36 530.091 202.06C534.998 199.607 539.445 196.617 543.431 193.09L552.631 207.35C546.958 212.257 540.671 216.09 533.771 218.85C526.871 221.61 519.665 222.99 512.151 222.99ZM580.178 220V36.92H601.338V87.06L600.418 112.82C606.244 106.993 612.454 102.087 619.048 98.1C625.641 93.96 633.231 91.89 641.818 91.89C655.004 91.89 664.664 96.1067 670.798 104.54C676.931 112.82 679.998 124.933 679.998 140.88V220H659.068V143.64C659.068 131.833 657.151 123.323 653.318 118.11C649.638 112.897 643.658 110.29 635.378 110.29C628.938 110.29 623.188 111.9 618.128 115.12C613.068 118.34 607.471 123.093 601.338 129.38V220H580.178ZM719.885 220V95.11H741.045V220H719.885ZM730.465 69.35C726.325 69.35 722.951 68.1233 720.345 65.67C717.891 63.0633 716.665 59.6133 716.665 55.32C716.665 51.18 717.891 47.8833 720.345 45.43C722.951 42.9767 726.325 41.75 730.465 41.75C734.605 41.75 737.978 42.9767 740.585 45.43C743.191 47.8833 744.495 51.18 744.495 55.32C744.495 59.6133 743.191 63.0633 740.585 65.67C737.978 68.1233 734.605 69.35 730.465 69.35ZM833.824 222.99C822.631 222.99 812.511 220.383 803.464 215.17C794.418 209.957 787.211 202.52 781.844 192.86C776.631 183.047 774.024 171.317 774.024 157.67C774.024 147.397 775.558 138.273 778.624 130.3C781.691 122.173 785.831 115.273 791.044 109.6C796.411 103.773 802.468 99.4033 809.214 96.49C815.961 93.4233 822.861 91.89 829.914 91.89C840.648 91.89 849.694 94.2667 857.054 99.02C864.414 103.773 870.011 110.597 873.844 119.49C877.831 128.23 879.824 138.58 879.824 150.54C879.824 152.84 879.748 154.987 879.594 156.98C879.441 158.973 879.211 160.813 878.904 162.5H794.724C795.184 171.393 797.178 179.137 800.704 185.73C804.384 192.17 809.214 197.23 815.194 200.91C821.174 204.437 828.151 206.2 836.124 206.2C842.258 206.2 847.778 205.357 852.684 203.67C857.744 201.83 862.651 199.377 867.404 196.31L874.764 210.34C869.398 213.867 863.341 216.857 856.594 219.31C849.848 221.763 842.258 222.99 833.824 222.99ZM794.494 147.55H861.424C861.424 134.977 858.664 125.393 853.144 118.8C847.778 112.053 840.188 108.68 830.374 108.68C824.548 108.68 819.028 110.213 813.814 113.28C808.754 116.347 804.461 120.717 800.934 126.39C797.561 132.063 795.414 139.117 794.494 147.55Z"/>
</mask>
<path d="M204.23 220V51.41H225.39V201.83H299.22V220H204.23ZM371.979 222.99C361.859 222.99 352.352 220.46 343.459 215.4C334.566 210.187 327.436 202.75 322.069 193.09C316.856 183.277 314.249 171.47 314.249 157.67C314.249 143.717 316.856 131.91 322.069 122.25C327.436 112.437 334.566 104.923 343.459 99.71C352.352 94.4967 361.859 91.89 371.979 91.89C379.646 91.89 386.929 93.3467 393.829 96.26C400.882 99.1733 407.092 103.467 412.459 109.14C417.826 114.813 422.042 121.713 425.109 129.84C428.176 137.967 429.709 147.243 429.709 157.67C429.709 171.47 427.026 183.277 421.659 193.09C416.292 202.75 409.239 210.187 400.499 215.4C391.759 220.46 382.252 222.99 371.979 222.99ZM371.979 205.51C379.186 205.51 385.472 203.517 390.839 199.53C396.359 195.543 400.652 189.947 403.719 182.74C406.786 175.533 408.319 167.177 408.319 157.67C408.319 148.01 406.786 139.577 403.719 132.37C400.652 125.163 396.359 119.567 390.839 115.58C385.472 111.593 379.186 109.6 371.979 109.6C364.772 109.6 358.409 111.593 352.889 115.58C347.522 119.567 343.306 125.163 340.239 132.37C337.326 139.577 335.869 148.01 335.869 157.67C335.869 167.177 337.326 175.533 340.239 182.74C343.306 189.947 347.522 195.543 352.889 199.53C358.409 203.517 364.772 205.51 371.979 205.51ZM512.151 222.99C501.111 222.99 491.145 220.46 482.251 215.4C473.511 210.187 466.535 202.75 461.321 193.09C456.261 183.277 453.731 171.47 453.731 157.67C453.731 143.717 456.491 131.91 462.011 122.25C467.531 112.437 474.891 104.923 484.091 99.71C493.291 94.4967 503.181 91.89 513.761 91.89C521.888 91.89 528.865 93.3467 534.691 96.26C540.671 99.1733 545.808 102.623 550.101 106.61L539.521 120.41C535.995 117.19 532.161 114.583 528.021 112.59C524.035 110.597 519.588 109.6 514.681 109.6C507.168 109.6 500.421 111.593 494.441 115.58C488.461 119.567 483.785 125.163 480.411 132.37C477.038 139.577 475.351 148.01 475.351 157.67C475.351 167.177 476.961 175.533 480.181 182.74C483.555 189.947 488.078 195.543 493.751 199.53C499.578 203.517 506.325 205.51 513.991 205.51C519.818 205.51 525.185 204.36 530.091 202.06C534.998 199.607 539.445 196.617 543.431 193.09L552.631 207.35C546.958 212.257 540.671 216.09 533.771 218.85C526.871 221.61 519.665 222.99 512.151 222.99ZM580.178 220V36.92H601.338V87.06L600.418 112.82C606.244 106.993 612.454 102.087 619.048 98.1C625.641 93.96 633.231 91.89 641.818 91.89C655.004 91.89 664.664 96.1067 670.798 104.54C676.931 112.82 679.998 124.933 679.998 140.88V220H659.068V143.64C659.068 131.833 657.151 123.323 653.318 118.11C649.638 112.897 643.658 110.29 635.378 110.29C628.938 110.29 623.188 111.9 618.128 115.12C613.068 118.34 607.471 123.093 601.338 129.38V220H580.178ZM719.885 220V95.11H741.045V220H719.885ZM730.465 69.35C726.325 69.35 722.951 68.1233 720.345 65.67C717.891 63.0633 716.665 59.6133 716.665 55.32C716.665 51.18 717.891 47.8833 720.345 45.43C722.951 42.9767 726.325 41.75 730.465 41.75C734.605 41.75 737.978 42.9767 740.585 45.43C743.191 47.8833 744.495 51.18 744.495 55.32C744.495 59.6133 743.191 63.0633 740.585 65.67C737.978 68.1233 734.605 69.35 730.465 69.35ZM833.824 222.99C822.631 222.99 812.511 220.383 803.464 215.17C794.418 209.957 787.211 202.52 781.844 192.86C776.631 183.047 774.024 171.317 774.024 157.67C774.024 147.397 775.558 138.273 778.624 130.3C781.691 122.173 785.831 115.273 791.044 109.6C796.411 103.773 802.468 99.4033 809.214 96.49C815.961 93.4233 822.861 91.89 829.914 91.89C840.648 91.89 849.694 94.2667 857.054 99.02C864.414 103.773 870.011 110.597 873.844 119.49C877.831 128.23 879.824 138.58 879.824 150.54C879.824 152.84 879.748 154.987 879.594 156.98C879.441 158.973 879.211 160.813 878.904 162.5H794.724C795.184 171.393 797.178 179.137 800.704 185.73C804.384 192.17 809.214 197.23 815.194 200.91C821.174 204.437 828.151 206.2 836.124 206.2C842.258 206.2 847.778 205.357 852.684 203.67C857.744 201.83 862.651 199.377 867.404 196.31L874.764 210.34C869.398 213.867 863.341 216.857 856.594 219.31C849.848 221.763 842.258 222.99 833.824 222.99ZM794.494 147.55H861.424C861.424 134.977 858.664 125.393 853.144 118.8C847.778 112.053 840.188 108.68 830.374 108.68C824.548 108.68 819.028 110.213 813.814 113.28C808.754 116.347 804.461 120.717 800.934 126.39C797.561 132.063 795.414 139.117 794.494 147.55Z" fill="white"/>
<path d="M204.23 220H194.23V230H204.23V220ZM204.23 51.41V41.41H194.23V51.41H204.23ZM225.39 51.41H235.39V41.41H225.39V51.41ZM225.39 201.83H215.39V211.83H225.39V201.83ZM299.22 201.83H309.22V191.83H299.22V201.83ZM299.22 220V230H309.22V220H299.22ZM214.23 220V51.41H194.23V220H214.23ZM204.23 61.41H225.39V41.41H204.23V61.41ZM215.39 51.41V201.83H235.39V51.41H215.39ZM225.39 211.83H299.22V191.83H225.39V211.83ZM289.22 201.83V220H309.22V201.83H289.22ZM299.22 210H204.23V230H299.22V210ZM343.459 215.4L338.402 224.027L338.458 224.06L338.514 224.092L343.459 215.4ZM322.069 193.09L313.238 197.782L313.282 197.864L313.327 197.946L322.069 193.09ZM322.069 122.25L313.295 117.452L313.282 117.476L313.269 117.501L322.069 122.25ZM343.459 99.71L348.516 108.337L348.516 108.337L343.459 99.71ZM393.829 96.26L389.939 105.472L389.975 105.488L390.011 105.503L393.829 96.26ZM412.459 109.14L419.724 102.268L412.459 109.14ZM425.109 129.84L434.465 126.309V126.309L425.109 129.84ZM421.659 193.09L430.401 197.946L430.417 197.917L430.433 197.888L421.659 193.09ZM400.499 215.4L405.509 224.054L405.566 224.022L405.622 223.988L400.499 215.4ZM390.839 199.53L384.984 191.423L384.93 191.463L384.876 191.503L390.839 199.53ZM403.719 182.74L394.518 178.824L403.719 182.74ZM403.719 132.37L394.518 136.286V136.286L403.719 132.37ZM390.839 115.58L384.876 123.607L384.93 123.647L384.984 123.687L390.839 115.58ZM352.889 115.58L347.034 107.473L346.98 107.513L346.926 107.553L352.889 115.58ZM340.239 132.37L331.038 128.454L331.002 128.538L330.968 128.622L340.239 132.37ZM340.239 182.74L330.968 186.488L331.002 186.572L331.038 186.656L340.239 182.74ZM352.889 199.53L346.926 207.557L346.98 207.597L347.034 207.637L352.889 199.53ZM371.979 212.99C363.613 212.99 355.808 210.921 348.404 206.708L338.514 224.092C348.897 229.999 360.105 232.99 371.979 232.99V212.99ZM348.516 206.773C341.277 202.53 335.373 196.446 330.811 188.234L313.327 197.946C319.498 209.054 327.854 217.844 338.402 224.027L348.516 206.773ZM330.9 188.398C326.618 180.338 324.249 170.223 324.249 157.67H304.249C304.249 172.717 307.093 186.215 313.238 197.782L330.9 188.398ZM324.249 157.67C324.249 144.935 326.629 134.857 330.869 126.999L313.269 117.501C307.083 128.963 304.249 142.498 304.249 157.67H324.249ZM330.843 127.048C335.417 118.684 341.318 112.557 348.516 108.337L338.402 91.083C327.814 97.2898 319.455 106.189 313.295 117.452L330.843 127.048ZM348.516 108.337C355.906 104.005 363.671 101.89 371.979 101.89V81.89C360.047 81.89 348.799 84.9882 338.402 91.083L348.516 108.337ZM371.979 101.89C378.342 101.89 384.3 103.091 389.939 105.472L397.719 87.0475C389.558 83.602 380.95 81.89 371.979 81.89V101.89ZM390.011 105.503C395.731 107.865 400.773 111.338 405.194 116.012L419.724 102.268C413.411 95.5948 406.034 90.4818 397.647 87.0174L390.011 105.503ZM405.194 116.012C409.552 120.619 413.102 126.346 415.753 133.371L434.465 126.309C430.983 117.081 426.1 109.008 419.724 102.268L405.194 116.012ZM415.753 133.371C418.318 140.168 419.709 148.214 419.709 157.67H439.709C439.709 146.273 438.033 135.766 434.465 126.309L415.753 133.371ZM419.709 157.67C419.709 170.18 417.28 180.256 412.885 188.292L430.433 197.888C436.771 186.298 439.709 172.76 439.709 157.67H419.709ZM412.918 188.234C408.331 196.489 402.473 202.578 395.376 206.812L405.622 223.988C416.005 217.795 424.254 209.011 430.401 197.946L412.918 188.234ZM395.489 206.746C388.299 210.908 380.525 212.99 371.979 212.99V232.99C383.98 232.99 395.219 230.012 405.509 224.054L395.489 206.746ZM371.979 215.51C381.156 215.51 389.574 212.927 396.802 207.557L384.876 191.503C381.371 194.106 377.215 195.51 371.979 195.51V215.51ZM396.694 207.637C403.901 202.432 409.25 195.282 412.921 186.656L394.518 178.824C392.055 184.612 388.817 188.655 384.984 191.423L396.694 207.637ZM412.921 186.656C416.614 177.976 418.319 168.241 418.319 157.67H398.319C398.319 166.112 396.957 173.091 394.518 178.824L412.921 186.656ZM418.319 157.67C418.319 146.969 416.622 137.152 412.921 128.454L394.518 136.286C396.95 142.001 398.319 149.051 398.319 157.67H418.319ZM412.921 128.454C409.25 119.828 403.901 112.678 396.694 107.473L384.984 123.687C388.817 126.455 392.055 130.498 394.518 136.286L412.921 128.454ZM396.802 107.553C389.574 102.183 381.156 99.6 371.979 99.6V119.6C377.215 119.6 381.371 121.004 384.876 123.607L396.802 107.553ZM371.979 99.6C362.801 99.6 354.361 102.182 347.034 107.473L358.744 123.687C362.457 121.005 366.744 119.6 371.979 119.6V99.6ZM346.926 107.553C339.906 112.767 334.679 119.897 331.038 128.454L349.441 136.286C351.932 130.43 355.139 126.366 358.852 123.607L346.926 107.553ZM330.968 128.622C327.472 137.27 325.869 147.027 325.869 157.67H345.869C345.869 148.993 347.18 141.883 349.51 136.118L330.968 128.622ZM325.869 157.67C325.869 168.183 327.479 177.857 330.968 186.488L349.51 178.992C347.173 173.21 345.869 166.17 345.869 157.67H325.869ZM331.038 186.656C334.679 195.213 339.906 202.343 346.926 207.557L358.852 191.503C355.139 188.744 351.932 184.68 349.441 178.824L331.038 186.656ZM347.034 207.637C354.361 212.928 362.801 215.51 371.979 215.51V195.51C366.744 195.51 362.457 194.105 358.744 191.423L347.034 207.637ZM482.251 215.4L477.129 223.988L477.217 224.041L477.306 224.092L482.251 215.4ZM461.321 193.09L452.433 197.673L452.477 197.757L452.521 197.839L461.321 193.09ZM462.011 122.25L470.694 127.211L470.711 127.182L470.727 127.153L462.011 122.25ZM484.091 99.71L489.022 108.41V108.41L484.091 99.71ZM534.691 96.26L530.219 105.204L530.265 105.227L530.312 105.25L534.691 96.26ZM550.102 106.61L558.038 112.694L563.574 105.473L556.906 99.2821L550.102 106.61ZM539.521 120.41L532.779 127.795L540.827 135.143L547.458 126.494L539.521 120.41ZM528.021 112.59L523.549 121.534L523.616 121.568L523.683 121.6L528.021 112.59ZM494.441 115.58L499.988 123.9L494.441 115.58ZM480.411 132.37L489.468 136.609V136.609L480.411 132.37ZM480.181 182.74L471.051 186.819L471.087 186.9L471.125 186.979L480.181 182.74ZM493.751 199.53L488.002 207.712L488.053 207.748L488.105 207.783L493.751 199.53ZM530.091 202.06L534.336 211.115L534.45 211.061L534.564 211.004L530.091 202.06ZM543.431 193.09L551.834 187.669L545.524 177.888L536.806 185.6L543.431 193.09ZM552.632 207.35L559.173 214.914L565.745 209.23L561.034 201.929L552.632 207.35ZM533.771 218.85L530.058 209.565L533.771 218.85ZM512.151 212.99C502.704 212.99 494.465 210.844 487.197 206.708L477.306 224.092C487.825 230.076 499.519 232.99 512.151 232.99V212.99ZM487.374 206.812C480.306 202.595 474.548 196.542 470.122 188.341L452.521 197.839C458.522 208.958 466.717 217.778 477.129 223.988L487.374 206.812ZM470.21 188.507C466.04 180.421 463.731 170.266 463.731 157.67H443.731C443.731 172.674 446.483 186.132 452.433 197.673L470.21 188.507ZM463.731 157.67C463.731 145.021 466.231 135.022 470.694 127.211L453.329 117.289C446.752 128.798 443.731 142.413 443.731 157.67H463.731ZM470.727 127.153C475.415 118.819 481.509 112.667 489.022 108.41L479.161 91.0098C468.274 97.1794 459.648 106.054 453.296 117.347L470.727 127.153ZM489.022 108.41C496.717 104.049 504.909 101.89 513.761 101.89V81.89C501.454 81.89 489.866 84.944 479.161 91.0098L489.022 108.41ZM513.761 101.89C520.711 101.89 526.082 103.136 530.219 105.204L539.164 87.3157C531.647 83.5577 523.065 81.89 513.761 81.89V101.89ZM530.312 105.25C535.524 107.789 539.816 110.705 543.297 113.938L556.906 99.2821C551.801 94.5413 545.819 90.5576 539.071 87.2701L530.312 105.25ZM542.165 100.526L531.585 114.326L547.458 126.494L558.038 112.694L542.165 100.526ZM546.264 113.025C542.048 109.175 537.41 106.012 532.36 103.58L523.683 121.6C526.913 123.155 529.942 125.205 532.779 127.795L546.264 113.025ZM532.494 103.646C526.983 100.89 520.982 99.6 514.681 99.6V119.6C518.195 119.6 521.087 120.303 523.549 121.534L532.494 103.646ZM514.681 99.6C505.289 99.6 496.594 102.126 488.895 107.259L499.988 123.9C504.249 121.06 509.048 119.6 514.681 119.6V99.6ZM488.895 107.259C481.234 112.366 475.417 119.451 471.355 128.131L489.468 136.609C492.152 130.876 495.689 126.767 499.988 123.9L488.895 107.259ZM471.355 128.131C467.242 136.917 465.352 146.853 465.352 157.67H485.352C485.352 149.167 486.835 142.236 489.468 136.609L471.355 128.131ZM465.352 157.67C465.352 168.3 467.153 178.095 471.051 186.819L489.312 178.661C486.77 172.972 485.352 166.053 485.352 157.67H465.352ZM471.125 186.979C475.127 195.53 480.702 202.582 488.002 207.712L499.501 191.348C495.455 188.505 491.983 184.363 489.238 178.501L471.125 186.979ZM488.105 207.783C495.738 213.006 504.491 215.51 513.991 215.51V195.51C508.159 195.51 503.418 194.027 499.398 191.277L488.105 207.783ZM513.991 215.51C521.173 215.51 528.003 214.083 534.336 211.115L525.847 193.005C522.367 194.637 518.463 195.51 513.991 195.51V215.51ZM534.564 211.004C540.224 208.174 545.399 204.701 550.057 200.58L536.806 185.6C533.49 188.533 529.772 191.039 525.619 193.116L534.564 211.004ZM535.029 198.511L544.229 212.771L561.034 201.929L551.834 187.669L535.029 198.511ZM546.09 199.786C541.249 203.973 535.916 207.222 530.058 209.565L537.485 228.135C545.427 224.958 552.667 220.54 559.173 214.914L546.09 199.786ZM530.058 209.565C524.352 211.847 518.407 212.99 512.151 212.99V232.99C520.923 232.99 529.391 231.373 537.485 228.135L530.058 209.565ZM580.178 220H570.178V230H580.178V220ZM580.178 36.92V26.92H570.178V36.92H580.178ZM601.338 36.92H611.338V26.92H601.338V36.92ZM601.338 87.06L611.331 87.4169L611.338 87.2385V87.06H601.338ZM600.418 112.82L590.424 112.463L589.517 137.863L607.489 119.891L600.418 112.82ZM619.048 98.1L624.222 106.657L624.294 106.614L624.365 106.569L619.048 98.1ZM670.798 104.54L662.71 110.422L662.736 110.457L662.762 110.492L670.798 104.54ZM679.998 220V230H689.998V220H679.998ZM659.068 220H649.068V230H659.068V220ZM653.318 118.11L645.148 123.877L645.204 123.956L645.261 124.034L653.318 118.11ZM618.128 115.12L612.759 106.683L618.128 115.12ZM601.338 129.38L594.18 122.397L591.338 125.31V129.38H601.338ZM601.338 220V230H611.338V220H601.338ZM590.178 220V36.92H570.178V220H590.178ZM580.178 46.92H601.338V26.92H580.178V46.92ZM591.338 36.92V87.06H611.338V36.92H591.338ZM591.344 86.7031L590.424 112.463L610.411 113.177L611.331 87.4169L591.344 86.7031ZM607.489 119.891C612.785 114.595 618.364 110.199 624.222 106.657L613.873 89.5427C606.544 93.9743 599.704 99.3915 593.347 105.749L607.489 119.891ZM624.365 106.569C629.204 103.531 634.912 101.89 641.818 101.89V81.89C631.55 81.89 622.078 84.3893 613.73 89.6311L624.365 106.569ZM641.818 101.89C652.745 101.89 658.951 105.253 662.71 110.422L678.885 98.6583C670.378 86.9608 657.263 81.89 641.818 81.89V101.89ZM662.762 110.492C667.092 116.337 669.998 125.977 669.998 140.88H689.998C689.998 123.89 686.77 109.303 678.833 98.5877L662.762 110.492ZM669.998 140.88V220H689.998V140.88H669.998ZM679.998 210H659.068V230H679.998V210ZM669.068 220V143.64H649.068V220H669.068ZM669.068 143.64C669.068 131.235 667.147 120.037 661.374 112.186L645.261 124.034C647.155 126.609 649.068 132.432 649.068 143.64H669.068ZM661.487 112.343C655.391 103.707 645.836 100.29 635.378 100.29V120.29C641.479 120.29 643.884 122.086 645.148 123.877L661.487 112.343ZM635.378 100.29C627.182 100.29 619.543 102.366 612.759 106.683L623.496 123.557C626.833 121.433 630.693 120.29 635.378 120.29V100.29ZM612.759 106.683C606.824 110.46 600.627 115.788 594.18 122.397L608.495 136.363C614.315 130.399 619.311 126.22 623.496 123.557L612.759 106.683ZM591.338 129.38V220H611.338V129.38H591.338ZM601.338 210H580.178V230H601.338V210ZM719.885 220H709.885V230H719.885V220ZM719.885 95.11V85.11H709.885V95.11H719.885ZM741.045 95.11H751.045V85.11H741.045V95.11ZM741.045 220V230H751.045V220H741.045ZM720.345 65.67L713.063 72.5236L713.27 72.7443L713.491 72.952L720.345 65.67ZM720.345 45.43L713.491 38.148L713.381 38.2518L713.274 38.3589L720.345 45.43ZM740.585 45.43L747.438 38.148L747.438 38.148L740.585 45.43ZM740.585 65.67L747.438 72.952L747.549 72.8482L747.656 72.7411L740.585 65.67ZM729.885 220V95.11H709.885V220H729.885ZM719.885 105.11H741.045V85.11H719.885V105.11ZM731.045 95.11V220H751.045V95.11H731.045ZM741.045 210H719.885V230H741.045V210ZM730.465 59.35C728.444 59.35 727.66 58.8228 727.198 58.388L713.491 72.952C718.242 77.4238 724.205 79.35 730.465 79.35V59.35ZM727.627 58.8164C727.256 58.4229 726.665 57.6047 726.665 55.32H706.665C706.665 61.622 708.526 67.7037 713.063 72.5236L727.627 58.8164ZM726.665 55.32C726.665 53.2826 727.193 52.7232 727.416 52.501L713.274 38.3589C708.589 43.0434 706.665 49.0774 706.665 55.32H726.665ZM727.198 52.712C727.66 52.2771 728.444 51.75 730.465 51.75V31.75C724.205 31.75 718.242 33.6762 713.491 38.148L727.198 52.712ZM730.465 51.75C732.485 51.75 733.269 52.2771 733.731 52.712L747.438 38.148C742.687 33.6762 736.724 31.75 730.465 31.75V51.75ZM733.731 52.712C734.01 52.9748 734.495 53.4654 734.495 55.32H754.495C754.495 48.8946 752.372 42.7918 747.438 38.148L733.731 52.712ZM734.495 55.32C734.495 57.4329 733.936 58.1768 733.514 58.5989L747.656 72.7411C752.447 67.9499 754.495 61.7938 754.495 55.32H734.495ZM733.731 58.388C733.269 58.8228 732.485 59.35 730.465 59.35V79.35C736.724 79.35 742.687 77.4238 747.438 72.952L733.731 58.388ZM803.464 215.17L798.471 223.834L803.464 215.17ZM781.844 192.86L773.013 197.552L773.057 197.634L773.103 197.716L781.844 192.86ZM778.624 130.3L787.958 133.89L787.969 133.86L787.98 133.831L778.624 130.3ZM791.044 109.6L783.689 102.825L783.681 102.834L791.044 109.6ZM809.214 96.49L813.179 105.671L813.266 105.633L813.352 105.594L809.214 96.49ZM857.054 99.02L851.629 107.42L857.054 99.02ZM873.844 119.49L864.661 123.448L864.703 123.545L864.746 123.64L873.844 119.49ZM879.594 156.98L869.624 156.213L879.594 156.98ZM878.904 162.5V172.5H887.25L888.743 164.289L878.904 162.5ZM794.724 162.5V152.5H784.194L784.738 163.017L794.724 162.5ZM800.704 185.73L791.887 190.447L791.953 190.57L792.022 190.691L800.704 185.73ZM815.194 200.91L809.953 209.427L810.034 209.476L810.115 209.524L815.194 200.91ZM852.684 203.67L855.935 213.127L856.019 213.098L856.102 213.068L852.684 203.67ZM867.404 196.31L876.26 191.665L871.177 181.975L861.983 187.907L867.404 196.31ZM874.764 210.34L880.256 218.697L887.83 213.72L883.62 205.695L874.764 210.34ZM856.594 219.31L860.012 228.708L856.594 219.31ZM794.494 147.55L784.553 146.466L783.344 157.55H794.494V147.55ZM861.424 147.55V157.55H871.424V147.55H861.424ZM853.144 118.8L845.318 125.025L845.396 125.123L845.477 125.219L853.144 118.8ZM813.814 113.28L808.744 104.661L808.688 104.694L808.631 104.728L813.814 113.28ZM800.934 126.39L792.442 121.111L792.39 121.194L792.339 121.279L800.934 126.39ZM833.824 212.99C824.253 212.99 815.876 210.781 808.457 206.506L798.471 223.834C809.146 229.986 821.009 232.99 833.824 232.99V212.99ZM808.457 206.506C801.075 202.252 795.125 196.174 790.586 188.004L773.103 197.716C779.297 208.866 787.76 217.662 798.471 223.834L808.457 206.506ZM790.676 188.168C786.386 180.093 784.024 170.049 784.024 157.67H764.024C764.024 172.584 766.877 186 773.013 197.552L790.676 188.168ZM784.024 157.67C784.024 148.382 785.411 140.511 787.958 133.89L769.291 126.71C765.704 136.035 764.024 146.411 764.024 157.67H784.024ZM787.98 133.831C790.653 126.748 794.163 120.986 798.408 116.366L783.681 102.834C777.5 109.561 772.729 117.598 769.268 126.769L787.98 133.831ZM798.4 116.375C802.892 111.497 807.816 107.986 813.179 105.671L805.25 87.3094C797.119 90.8205 789.93 96.0493 783.689 102.825L798.4 116.375ZM813.352 105.594C818.867 103.087 824.361 101.89 829.914 101.89V81.89C821.361 81.89 813.055 83.7596 805.076 87.3863L813.352 105.594ZM829.914 101.89C839.158 101.89 846.216 103.925 851.629 107.42L862.48 90.6196C853.172 84.6086 842.137 81.89 829.914 81.89V101.89ZM851.629 107.42C857.15 110.986 861.527 116.176 864.661 123.448L883.028 115.532C878.496 105.017 871.679 96.5605 862.48 90.6196L851.629 107.42ZM864.746 123.64C868.012 130.799 869.824 139.671 869.824 150.54H889.824C889.824 137.489 887.651 125.661 882.943 115.34L864.746 123.64ZM869.824 150.54C869.824 152.621 869.755 154.509 869.624 156.213L889.565 157.747C889.741 155.464 889.824 153.059 889.824 150.54H869.824ZM869.624 156.213C869.493 157.918 869.302 159.413 869.066 160.711L888.743 164.289C889.12 162.214 889.39 160.028 889.565 157.747L869.624 156.213ZM878.904 152.5H794.724V172.5H878.904V152.5ZM784.738 163.017C785.259 173.102 787.546 182.332 791.887 190.447L809.522 181.013C806.809 175.941 805.109 169.685 804.711 161.983L784.738 163.017ZM792.022 190.691C796.485 198.501 802.466 204.819 809.953 209.427L820.435 192.393C815.963 189.641 812.284 185.839 809.387 180.769L792.022 190.691ZM810.115 209.524C817.85 214.086 826.634 216.2 836.124 216.2V196.2C829.668 196.2 824.499 194.788 820.274 192.296L810.115 209.524ZM836.124 216.2C843.168 216.2 849.812 215.232 855.935 213.127L849.434 194.213C845.744 195.481 841.348 196.2 836.124 196.2V216.2ZM856.102 213.068C861.9 210.96 867.475 208.165 872.826 204.713L861.983 187.907C857.827 190.589 853.589 192.7 849.267 194.272L856.102 213.068ZM858.549 200.955L865.909 214.985L883.62 205.695L876.26 191.665L858.549 200.955ZM869.273 201.983C864.626 205.037 859.279 207.693 853.177 209.912L860.012 228.708C867.404 226.02 874.17 222.697 880.256 218.697L869.273 201.983ZM853.177 209.912C847.699 211.904 841.292 212.99 833.824 212.99V232.99C843.224 232.99 851.997 231.622 860.012 228.708L853.177 209.912ZM794.494 157.55H861.424V137.55H794.494V157.55ZM871.424 147.55C871.424 133.685 868.4 121.444 860.812 112.381L845.477 125.219C848.929 129.342 851.424 136.268 851.424 147.55H871.424ZM860.97 112.575C853.429 103.093 842.759 98.68 830.374 98.68V118.68C837.617 118.68 842.127 121.013 845.318 125.025L860.97 112.575ZM830.374 98.68C822.695 98.68 815.433 100.726 808.744 104.661L818.885 121.899C822.622 119.701 826.4 118.68 830.374 118.68V98.68ZM808.631 104.728C802.061 108.71 796.691 114.275 792.442 121.111L809.427 131.669C812.232 127.158 815.448 123.983 818.997 121.832L808.631 104.728ZM792.339 121.279C788.057 128.481 785.586 137 784.553 146.466L804.435 148.634C805.243 141.233 807.065 135.646 809.53 131.501L792.339 121.279Z" fill="white" mask="url(#path-3-outside-1_110_160)"/>
</svg>
