<svg width="205" height="295" viewBox="0 0 205 295" fill="none" xmlns="http://www.w3.org/2000/svg">
<path d="M185.911 57.0833C172.632 52.9167 162.119 50 154.372 48.3333C146.626 46.3889 137.22 45.4167 126.154 45.4167C103.745 45.4167 86.4541 54.5833 74.2814 72.9166C62.1086 91.25 56.0223 116.389 56.0223 148.333C56.0223 175.833 61.1404 199.583 71.3765 219.583C81.6127 239.583 98.7652 249.583 122.834 249.583C134.73 249.583 145.796 248.333 156.032 245.833C166.545 243.333 176.09 240.278 184.666 236.667L205 276.667C194.211 282.222 181.208 286.667 165.992 290C150.776 293.333 137.358 295 125.739 295C81.751 295 49.7976 280.833 29.8785 252.5C9.95951 224.167 0 189.583 0 148.75C0 105.139 10.9278 69.4444 32.7834 41.6666C54.9157 13.8889 86.5924 0 127.814 0C136.113 0 147.594 1.3889 162.257 4.16667C176.92 6.94445 190.337 11.6667 202.51 18.3333L185.911 57.0833Z" fill="white"/>
</svg>
